<svg width="44" height="19" viewBox="0 0 44 19" fill="none" xmlns="http://www.w3.org/2000/svg">
<path d="M9.41016 12.2148V14.5H2.25195V12.2148H9.41016ZM3.19922 0.28125V14.5H0.269531V0.28125H3.19922ZM10.4648 9.32422V9.11914C10.4648 8.3444 10.5755 7.63151 10.7969 6.98047C11.0182 6.32292 11.3405 5.75326 11.7637 5.27148C12.1868 4.78971 12.7077 4.41536 13.3262 4.14844C13.9447 3.875 14.6543 3.73828 15.4551 3.73828C16.2559 3.73828 16.9688 3.875 17.5938 4.14844C18.2188 4.41536 18.7428 4.78971 19.166 5.27148C19.5957 5.75326 19.9212 6.32292 20.1426 6.98047C20.3639 7.63151 20.4746 8.3444 20.4746 9.11914V9.32422C20.4746 10.0924 20.3639 10.8053 20.1426 11.4629C19.9212 12.1139 19.5957 12.6836 19.166 13.1719C18.7428 13.6536 18.222 14.028 17.6035 14.2949C16.985 14.5618 16.2754 14.6953 15.4746 14.6953C14.6738 14.6953 13.9609 14.5618 13.3359 14.2949C12.7174 14.028 12.1934 13.6536 11.7637 13.1719C11.3405 12.6836 11.0182 12.1139 10.7969 11.4629C10.5755 10.8053 10.4648 10.0924 10.4648 9.32422ZM13.2773 9.11914V9.32422C13.2773 9.76693 13.3164 10.1803 13.3945 10.5645C13.4727 10.9486 13.5964 11.2871 13.7656 11.5801C13.9414 11.8665 14.1693 12.0911 14.4492 12.2539C14.7292 12.4167 15.071 12.498 15.4746 12.498C15.8652 12.498 16.2005 12.4167 16.4805 12.2539C16.7604 12.0911 16.985 11.8665 17.1543 11.5801C17.3236 11.2871 17.4473 10.9486 17.5254 10.5645C17.61 10.1803 17.6523 9.76693 17.6523 9.32422V9.11914C17.6523 8.68945 17.61 8.28581 17.5254 7.9082C17.4473 7.52409 17.3203 7.18555 17.1445 6.89258C16.9753 6.5931 16.7507 6.35872 16.4707 6.18945C16.1908 6.02018 15.8522 5.93555 15.4551 5.93555C15.0579 5.93555 14.7194 6.02018 14.4395 6.18945C14.166 6.35872 13.9414 6.5931 13.7656 6.89258C13.5964 7.18555 13.4727 7.52409 13.3945 7.9082C13.3164 8.28581 13.2773 8.68945 13.2773 9.11914ZM28.8926 3.93359H31.4414V14.1484C31.4414 15.112 31.2266 15.929 30.7969 16.5996C30.3737 17.2767 29.7812 17.7878 29.0195 18.1328C28.2578 18.4844 27.3724 18.6602 26.3633 18.6602C25.9206 18.6602 25.4518 18.6016 24.957 18.4844C24.4688 18.3672 24 18.1849 23.5508 17.9375C23.1081 17.6901 22.737 17.3776 22.4375 17L23.6777 15.3398C24.0033 15.7174 24.3809 16.0104 24.8105 16.2188C25.2402 16.4336 25.7155 16.541 26.2363 16.541C26.7441 16.541 27.1738 16.4466 27.5254 16.2578C27.877 16.0755 28.1471 15.8053 28.3359 15.4473C28.5247 15.0957 28.6191 14.6693 28.6191 14.168V6.375L28.8926 3.93359ZM21.7832 9.34375V9.13867C21.7832 8.33138 21.8809 7.59896 22.0762 6.94141C22.278 6.27734 22.5612 5.70768 22.9258 5.23242C23.2969 4.75716 23.7461 4.38932 24.2734 4.12891C24.8008 3.86849 25.3965 3.73828 26.0605 3.73828C26.7637 3.73828 27.3529 3.86849 27.8281 4.12891C28.3034 4.38932 28.694 4.76042 29 5.24219C29.306 5.71745 29.5436 6.2806 29.7129 6.93164C29.8887 7.57617 30.0254 8.28255 30.123 9.05078V9.5C30.0254 10.2357 29.8789 10.9193 29.6836 11.5508C29.4883 12.1823 29.2311 12.7357 28.9121 13.2109C28.5931 13.6797 28.196 14.0443 27.7207 14.3047C27.252 14.5651 26.6921 14.6953 26.041 14.6953C25.39 14.6953 24.8008 14.5618 24.2734 14.2949C23.7526 14.028 23.3066 13.6536 22.9355 13.1719C22.5645 12.6901 22.278 12.1237 22.0762 11.4727C21.8809 10.8216 21.7832 10.112 21.7832 9.34375ZM24.5957 9.13867V9.34375C24.5957 9.77995 24.638 10.1868 24.7227 10.5645C24.8073 10.9421 24.9375 11.2773 25.1133 11.5703C25.2956 11.8568 25.5202 12.0814 25.7871 12.2441C26.0605 12.4004 26.3828 12.4785 26.7539 12.4785C27.2682 12.4785 27.6882 12.3711 28.0137 12.1562C28.3392 11.9349 28.5833 11.6322 28.7461 11.248C28.9089 10.8639 29.0033 10.4212 29.0293 9.91992V8.64062C29.0163 8.23047 28.9609 7.86263 28.8633 7.53711C28.7656 7.20508 28.6289 6.92188 28.4531 6.6875C28.2773 6.45312 28.0495 6.27083 27.7695 6.14062C27.4896 6.01042 27.1576 5.94531 26.7734 5.94531C26.4023 5.94531 26.0801 6.02995 25.8066 6.19922C25.5397 6.36198 25.3151 6.58659 25.1328 6.87305C24.957 7.15951 24.8236 7.49805 24.7324 7.88867C24.6413 8.27279 24.5957 8.68945 24.5957 9.13867ZM33.1797 9.32422V9.11914C33.1797 8.3444 33.2904 7.63151 33.5117 6.98047C33.7331 6.32292 34.0553 5.75326 34.4785 5.27148C34.9017 4.78971 35.4225 4.41536 36.041 4.14844C36.6595 3.875 37.3691 3.73828 38.1699 3.73828C38.9707 3.73828 39.6836 3.875 40.3086 4.14844C40.9336 4.41536 41.4577 4.78971 41.8809 5.27148C42.3105 5.75326 42.6361 6.32292 42.8574 6.98047C43.0788 7.63151 43.1895 8.3444 43.1895 9.11914V9.32422C43.1895 10.0924 43.0788 10.8053 42.8574 11.4629C42.6361 12.1139 42.3105 12.6836 41.8809 13.1719C41.4577 13.6536 40.9368 14.028 40.3184 14.2949C39.6999 14.5618 38.9902 14.6953 38.1895 14.6953C37.3887 14.6953 36.6758 14.5618 36.0508 14.2949C35.4323 14.028 34.9082 13.6536 34.4785 13.1719C34.0553 12.6836 33.7331 12.1139 33.5117 11.4629C33.2904 10.8053 33.1797 10.0924 33.1797 9.32422ZM35.9922 9.11914V9.32422C35.9922 9.76693 36.0312 10.1803 36.1094 10.5645C36.1875 10.9486 36.3112 11.2871 36.4805 11.5801C36.6562 11.8665 36.8841 12.0911 37.1641 12.2539C37.444 12.4167 37.7858 12.498 38.1895 12.498C38.5801 12.498 38.9154 12.4167 39.1953 12.2539C39.4753 12.0911 39.6999 11.8665 39.8691 11.5801C40.0384 11.2871 40.1621 10.9486 40.2402 10.5645C40.3249 10.1803 40.3672 9.76693 40.3672 9.32422V9.11914C40.3672 8.68945 40.3249 8.28581 40.2402 7.9082C40.1621 7.52409 40.0352 7.18555 39.8594 6.89258C39.6901 6.5931 39.4655 6.35872 39.1855 6.18945C38.9056 6.02018 38.5671 5.93555 38.1699 5.93555C37.7728 5.93555 37.4342 6.02018 37.1543 6.18945C36.8809 6.35872 36.6562 6.5931 36.4805 6.89258C36.3112 7.18555 36.1875 7.52409 36.1094 7.9082C36.0312 8.28581 35.9922 8.68945 35.9922 9.11914Z" fill="white"/>
</svg>
